P3
6 4 255
11 56 145 16 132 138 202 251 239 53 95 64 13 164 141 132 250 209
226 82 164 131 153 60 58 126 242 90 123 114 47 142 160 14 120 35
66 187 83 143 4 156 150 182 223 32 62 112 53 255 86 196 0 71
7 98 115 227 245 161 55 24 176 11 187 207 89 80 215 62 119 101
