P3
2 6 255
207 235 13 225 46 245
222 23 131 42 161 190
64 95 146 234 44 255
71 0 14 75 28 34
35 194 113 177 42 231
77 74 47 166 156 138
